<svg width="175" height="175" viewBox="0 0 175 175" fill="none" xmlns="http://www.w3.org/2000/svg">
<path d="M0 11.9325C0 8.76803 1.2571 5.73313 3.49475 3.49548C5.7324 1.25783 8.7673 0.000732422 11.9318 0.000732422H83.5227V19.2905C80.9718 18.3695 78.2803 17.8985 75.5682 17.8985C72.0862 17.8873 68.6439 18.6383 65.483 20.0987C62.3221 21.5591 59.519 23.6936 57.2705 26.3523C55.0221 29.011 53.3827 32.1296 52.4674 35.4891C51.5521 38.8487 51.3831 42.3679 51.9723 45.7997C52.5614 49.2315 53.8944 52.4928 55.8778 55.3547C57.8611 58.2166 60.4468 60.6099 63.4532 62.3665C66.4597 64.123 69.8141 65.2004 73.2812 65.523C76.7482 65.8455 80.2438 65.4055 83.5227 64.2337V83.5234H49.5966L54.4091 89.8871C56.3465 92.4687 57.4529 95.5786 57.5812 98.8039C57.7095 102.029 56.8538 105.217 55.1276 107.945C53.4013 110.672 50.8863 112.81 47.9165 114.074C44.9467 115.338 41.6625 115.67 38.5 115.023C35.8877 114.46 33.4593 113.249 31.4389 111.5C29.4185 109.751 27.8712 107.521 26.9399 105.016C26.0085 102.511 25.7231 99.8123 26.11 97.1682C26.4968 94.5241 27.5435 92.02 29.1534 89.8871L33.9261 83.5234H0V11.9325Z" fill="#6C63FF" fill-opacity="0.15"/>
<path d="M155.71 83.5227C156.631 80.9718 157.102 78.2803 157.102 75.5682C157.113 72.0862 156.362 68.6439 154.902 65.483C153.441 62.3221 151.307 59.519 148.648 57.2705C145.989 55.0221 142.871 53.3827 139.511 52.4674C136.152 51.5521 132.632 51.3831 129.201 51.9723C125.769 52.5614 122.508 53.8944 119.646 55.8778C116.784 57.8611 114.39 60.4468 112.634 63.4532C110.877 66.4597 109.8 69.8141 109.477 73.2812C109.155 76.7482 109.595 80.2438 110.767 83.5227H91.4768V49.5966L85.1132 54.4091C82.0113 56.5758 78.2388 57.5661 74.4726 57.2021C70.7065 56.8382 67.1933 55.1439 64.5637 52.4233C61.9341 49.7027 60.3603 46.134 60.1246 42.3576C59.889 38.5813 61.007 34.8446 63.278 31.8182C65.8906 28.6656 69.6182 26.6416 73.6852 26.1675C77.7522 25.6934 81.8454 26.8056 85.1132 29.2727L91.4768 33.9261V0H163.068C166.232 0 169.267 1.2571 171.505 3.49475C173.742 5.7324 175 8.7673 175 11.9318V83.5227H155.71Z" fill="#6C63FF" fill-opacity="0.15"/>
<path d="M174.999 163.068C174.999 166.233 173.742 169.268 171.505 171.505C169.267 173.743 166.232 175 163.067 175H91.4766V155.71C94.0275 156.631 96.719 157.102 99.4311 157.102C105.294 157.089 110.946 154.919 115.311 151.005C119.676 147.091 122.447 141.707 123.096 135.881C123.745 130.054 122.226 124.193 118.83 119.414C115.434 114.635 110.397 111.274 104.681 109.972C100.294 108.974 95.7125 109.25 91.4766 110.767V91.4773H125.403L120.59 85.1137C118.791 82.756 117.687 79.9423 117.402 76.9903C117.118 74.0383 117.664 71.0655 118.979 68.4074C120.294 65.7493 122.326 63.5118 124.846 61.9474C127.366 60.383 130.272 59.554 133.238 59.554C136.204 59.554 139.11 60.383 141.63 61.9474C144.149 63.5118 146.182 65.7493 147.497 68.4074C148.812 71.0655 149.358 74.0383 149.074 76.9903C148.789 79.9423 147.685 82.756 145.886 85.1137L141.073 91.4773H174.999V163.068Z" fill="#6C63FF" fill-opacity="0.15"/>
<path d="M83.5227 175H11.9318C8.7673 175 5.7324 173.743 3.49475 171.505C1.2571 169.268 0 166.233 0 163.068V91.4774H19.2898C18.1509 94.6873 17.7123 98.1038 18.0035 101.497C18.2947 104.891 19.3089 108.183 20.978 111.151C22.647 114.12 24.9323 116.698 27.6802 118.71C30.428 120.722 33.5749 122.123 36.9091 122.818C38.4938 123.134 40.1057 123.294 41.7216 123.296C48.0506 123.296 54.1204 120.781 58.5957 116.306C63.071 111.831 65.5852 105.761 65.5852 99.432C65.5852 96.7199 65.1141 94.0284 64.1932 91.4774H83.5227V125.404L89.8863 120.591C92.9882 118.424 96.7608 117.434 100.527 117.798C104.293 118.162 107.806 119.856 110.436 122.577C113.065 125.297 114.639 128.866 114.875 132.643C115.111 136.419 113.993 140.156 111.722 143.182C109.109 146.335 105.381 148.359 101.314 148.833C97.2473 149.307 93.1541 148.195 89.8863 145.727L83.5227 141.074V175Z" fill="#40B1A7"/>
<path d="M11.3418 139.608H19.5833C21.5791 139.608 23.4693 139.831 25.2538 140.277C27.0617 140.723 28.6349 141.451 29.9733 142.461C31.3116 143.447 32.3682 144.738 33.1431 146.335C33.9414 147.932 34.3406 149.869 34.3406 152.146C34.3406 154.166 33.9532 155.95 33.1783 157.5C32.4269 159.026 31.4056 160.318 30.1142 161.374C28.8227 162.407 27.3318 163.194 25.6412 163.734C23.9506 164.274 22.1779 164.544 20.3229 164.544H11.3418V139.608ZM16.8361 159.472H19.689C20.9569 159.472 22.1309 159.343 23.211 159.085C24.3146 158.827 25.2655 158.404 26.0638 157.817C26.8622 157.206 27.4844 156.42 27.9305 155.457C28.4001 154.471 28.6349 153.274 28.6349 151.865C28.6349 150.644 28.4001 149.587 27.9305 148.695C27.4844 147.779 26.8739 147.028 26.0991 146.441C25.3242 145.854 24.4085 145.419 23.3519 145.138C22.3188 144.832 21.2269 144.68 20.0764 144.68H16.8361V159.472Z" fill="white"/>
</svg>
