<?xml version="1.0" encoding="utf-8"?>
<!-- Generator: Adobe Illustrator 22.0.0, SVG Export Plug-In . SVG Version: 6.00 Build 0)  -->
<svg version="1.1" id="Layer_1" xmlns="http://www.w3.org/2000/svg" xmlns:xlink="http://www.w3.org/1999/xlink" x="0px" y="0px"
	 viewBox="0 0 712.7 39.3" style="enable-background:new 0 0 712.7 39.3;" xml:space="preserve">
<style type="text/css">
	.st0{clip-path:url(#SVGID_2_);}
	.st1{clip-path:url(#SVGID_4_);}
	.st2{clip-path:url(#SVGID_6_);fill:#59BE8A;}
	.st3{clip-path:url(#SVGID_8_);}
	.st4{clip-path:url(#SVGID_10_);fill:#F39C55;}
	.st5{clip-path:url(#SVGID_12_);}
	.st6{clip-path:url(#SVGID_14_);fill:#4376A3;}
	.st7{clip-path:url(#SVGID_16_);}
	.st8{clip-path:url(#SVGID_18_);fill:#ECBD00;}
	.st9{clip-path:url(#SVGID_20_);}
	.st10{clip-path:url(#SVGID_22_);fill:#BC553C;}
	.st11{clip-path:url(#SVGID_24_);}
	.st12{fill:#FFFFFF;}
	.st13{font-family:'Lato-Bold';}
	.st14{font-size:20.0031px;}
</style>
<g>
	<defs>
		<rect id="SVGID_1_" x="-0.1" y="-0.2" width="713" height="40"/>
	</defs>
	<clipPath id="SVGID_2_">
		<use xlink:href="#SVGID_1_"  style="overflow:visible;"/>
	</clipPath>
	<g class="st0">
		<defs>
			<polygon id="SVGID_3_" points="-62.3,-18.4 140.5,-18.4 185.3,57 -62.3,57 			"/>
		</defs>
		<clipPath id="SVGID_4_">
			<use xlink:href="#SVGID_3_"  style="overflow:visible;"/>
		</clipPath>
		<g class="st1">
			<defs>
				<rect id="SVGID_5_" x="-5.5" y="-0.8" width="720" height="40"/>
			</defs>
			<clipPath id="SVGID_6_">
				<use xlink:href="#SVGID_5_"  style="overflow:visible;"/>
			</clipPath>
			<rect x="-65.6" y="-21.7" class="st2" width="254.2" height="82"/>
		</g>
	</g>
	<g class="st0">
		<defs>
			<polygon id="SVGID_7_" points="406.5,-18.4 540.6,-18.4 585.4,57 451.3,57 			"/>
		</defs>
		<clipPath id="SVGID_8_">
			<use xlink:href="#SVGID_7_"  style="overflow:visible;"/>
		</clipPath>
		<g class="st3">
			<defs>
				<rect id="SVGID_9_" x="-5.5" y="-0.8" width="720" height="40"/>
			</defs>
			<clipPath id="SVGID_10_">
				<use xlink:href="#SVGID_9_"  style="overflow:visible;"/>
			</clipPath>
			<rect x="403.1" y="-21.7" class="st4" width="185.5" height="82"/>
		</g>
	</g>
	<g class="st0">
		<defs>
			<polygon id="SVGID_11_" points="139.8,-18.4 273.9,-18.4 318.7,57 184.6,57 			"/>
		</defs>
		<clipPath id="SVGID_12_">
			<use xlink:href="#SVGID_11_"  style="overflow:visible;"/>
		</clipPath>
		<g class="st5">
			<defs>
				<rect id="SVGID_13_" x="-5.5" y="-0.8" width="720" height="40"/>
			</defs>
			<clipPath id="SVGID_14_">
				<use xlink:href="#SVGID_13_"  style="overflow:visible;"/>
			</clipPath>
			<rect x="136.4" y="-21.7" class="st6" width="185.5" height="82"/>
		</g>
	</g>
	<g class="st0">
		<defs>
			<polygon id="SVGID_15_" points="273.1,-18.4 407.2,-18.4 452,57 318,57 			"/>
		</defs>
		<clipPath id="SVGID_16_">
			<use xlink:href="#SVGID_15_"  style="overflow:visible;"/>
		</clipPath>
		<g class="st7">
			<defs>
				<rect id="SVGID_17_" x="-5.5" y="-0.8" width="720" height="40"/>
			</defs>
			<clipPath id="SVGID_18_">
				<use xlink:href="#SVGID_17_"  style="overflow:visible;"/>
			</clipPath>
			<rect x="269.8" y="-21.7" class="st8" width="185.5" height="82"/>
		</g>
	</g>
	<g class="st0">
		<defs>
			<polygon id="SVGID_19_" points="539.8,-18.4 771.5,-18.4 771.5,57 584.7,57 			"/>
		</defs>
		<clipPath id="SVGID_20_">
			<use xlink:href="#SVGID_19_"  style="overflow:visible;"/>
		</clipPath>
		<g class="st9">
			<defs>
				<rect id="SVGID_21_" x="-5.5" y="-0.8" width="720" height="40"/>
			</defs>
			<clipPath id="SVGID_22_">
				<use xlink:href="#SVGID_21_"  style="overflow:visible;"/>
			</clipPath>
			<rect x="536.5" y="-21.7" class="st10" width="238.4" height="82"/>
		</g>
	</g>
	<g class="st0">
		<defs>
			<rect id="SVGID_23_" x="-5.5" y="-0.8" width="720" height="40"/>
		</defs>
		<clipPath id="SVGID_24_">
			<use xlink:href="#SVGID_23_"  style="overflow:visible;"/>
		</clipPath>
		<g class="st11">
			<text transform="matrix(1 0 0 1 48.426 26.3077)" class="st12 st13 st14">Empathize</text>
		</g>
		<g class="st11">
			<text transform="matrix(1 0 0 1 339.1711 26.3077)" class="st12 st13 st14">Ideate</text>
		</g>
		<g class="st11">
			<text transform="matrix(1 0 0 1 199.2599 26.3077)" class="st12 st13 st14">Deﬁne</text>
		</g>
		<g class="st11">
			<text transform="matrix(1 0 0 1 455.3757 26.3077)" class="st12 st13 st14">Prototype</text>
		</g>
		<g class="st11">
			<text transform="matrix(1 0 0 1 609.6418 26.3077)" class="st12 st13 st14">Test</text>
		</g>
	</g>
</g>
</svg>
