<?xml version="1.0" standalone="no"?>
<!DOCTYPE svg PUBLIC "-//W3C//DTD SVG 20010904//EN"
 "http://www.w3.org/TR/2001/REC-SVG-20010904/DTD/svg10.dtd">
<svg version="1.0" xmlns="http://www.w3.org/2000/svg"
 width="700.000000pt" height="700.000000pt" viewBox="0 0 700.000000 700.000000"
 preserveAspectRatio="xMidYMid meet">
<metadata>
Created by potrace 1.11, written by Peter Selinger 2001-2013
</metadata>
<g transform="translate(0.000000,700.000000) scale(0.100000,-0.100000)"
fill="#000000" stroke="none">
<path d="M3338 6995 c-2 -1 -34 -6 -73 -10 -38 -3 -86 -8 -105 -10 -100 -11
-171 -17 -223 -20 -32 -2 -60 -4 -62 -6 -2 -2 199 -353 447 -779 248 -426 459
-791 470 -810 11 -19 120 -206 241 -415 121 -209 301 -519 400 -690 99 -170
181 -311 182 -313 3 -3 89 137 304 493 73 121 183 303 245 405 61 102 208 345
326 540 118 195 254 420 302 499 101 167 104 141 -31 263 -478 427 -1032 699
-1641 804 -103 17 -115 19 -205 29 -33 4 -73 9 -90 11 -37 5 -482 13 -487 9z"/>
<path d="M2345 6779 c-138 -50 -267 -101 -353 -141 -46 -21 -85 -38 -86 -38
-2 0 -61 -32 -132 -72 -377 -209 -712 -482 -968 -788 -39 -47 -74 -87 -77 -90
-15 -12 -174 -240 -225 -323 -74 -119 -162 -286 -218 -414 l-44 -101 1675 0
c1487 0 1674 1 1669 15 -3 8 -61 108 -127 221 -67 114 -130 223 -141 242 -11
19 -51 87 -88 150 -37 63 -77 131 -88 150 -10 19 -54 93 -96 164 -42 70 -76
129 -76 131 0 1 -25 44 -55 96 -31 52 -60 101 -65 109 -269 460 -422 720 -423
719 -1 -1 -38 -14 -82 -30z"/>
<path d="M6052 5452 c-90 -152 -168 -284 -173 -292 -5 -8 -54 -91 -109 -185
-55 -93 -105 -177 -110 -185 -5 -8 -35 -59 -67 -113 -32 -54 -63 -106 -68
-115 -6 -9 -37 -62 -69 -117 -33 -55 -85 -143 -116 -195 -112 -187 -415 -695
-425 -715 -6 -11 -52 -87 -101 -170 -49 -82 -93 -158 -99 -168 -5 -9 -81 -136
-167 -281 -87 -146 -159 -270 -160 -277 -2 -11 236 -13 1250 -14 690 0 1257 2
1261 5 9 6 62 191 85 297 24 107 24 1110 0 1234 -64 337 -198 700 -380 1029
-94 169 -359 542 -383 540 -3 -1 -79 -126 -169 -278z"/>
<path d="M158 4372 c-31 -6 -115 -357 -141 -587 -12 -109 -15 -502 -3 -590 2
-16 7 -58 10 -93 4 -35 9 -73 12 -85 2 -12 11 -62 19 -112 31 -180 104 -432
185 -636 41 -104 166 -364 216 -449 128 -220 348 -544 369 -543 5 0 17 13 26
29 9 16 41 72 71 124 30 52 197 341 371 641 173 300 324 561 336 580 11 19 26
45 34 59 7 14 81 142 164 285 83 143 160 276 171 295 65 114 473 819 515 890
66 113 109 190 105 191 -7 3 -2445 4 -2460 1z"/>
<path d="M2314 2948 c-38 -62 -75 -125 -84 -140 -8 -16 -37 -65 -64 -110 -26
-46 -56 -96 -66 -113 -9 -16 -90 -153 -179 -303 -89 -151 -170 -287 -179 -303
-17 -29 -159 -270 -366 -619 -60 -102 -142 -241 -183 -309 l-75 -125 39 -36
c63 -60 242 -201 344 -272 494 -345 1096 -558 1704 -605 180 -14 533 -8 632
11 23 5 182 18 253 21 100 5 92 2 76 27 -7 13 -110 185 -228 383 -118 198
-361 605 -540 905 -179 300 -335 561 -347 580 -11 19 -27 46 -35 60 -8 14
-154 258 -324 543 l-310 519 -68 -114z"/>
<path d="M3410 2184 c0 -3 12 -26 28 -52 15 -26 32 -54 37 -64 6 -9 37 -61 70
-115 33 -53 70 -113 81 -132 43 -72 632 -1037 765 -1254 30 -48 59 -95 64
-105 64 -113 161 -262 170 -262 6 0 56 18 111 39 396 156 751 370 1074 646 54
47 301 294 351 351 141 164 272 344 383 529 35 59 166 316 197 387 l16 37
-1674 0 c-920 0 -1673 -3 -1673 -5z"/>
</g>
</svg>
