<?xml version="1.0" encoding="utf-8"?>
<!-- Generator: Adobe Illustrator 22.0.0, SVG Export Plug-In . SVG Version: 6.00 Build 0)  -->
<svg version="1.1" id="Layer_1" xmlns="http://www.w3.org/2000/svg" xmlns:xlink="http://www.w3.org/1999/xlink" x="0px" y="0px"
	 viewBox="0 0 135.3 15.7" style="enable-background:new 0 0 135.3 15.7;" xml:space="preserve">
<style type="text/css">
	.st0{fill:#FFFFFF;}
	.st1{clip-path:url(#SVGID_2_);}
	.st2{clip-path:url(#SVGID_4_);fill:#CC593A;}
	.st3{clip-path:url(#SVGID_4_);fill:#4281B7;}
</style>
<g>
	<path class="st0" d="M25.9,7.3h0.3c0.1,0,0.2,0,0.3,0c0.1,0,0.1-0.1,0.2-0.1l1.6-2c0.1-0.1,0.1-0.1,0.2-0.2c0.1,0,0.2-0.1,0.3-0.1
		h0.9l-1.9,2.4c-0.1,0.1-0.1,0.1-0.2,0.2c-0.1,0.1-0.1,0.1-0.2,0.1c0.1,0,0.2,0.1,0.2,0.1s0.1,0.1,0.2,0.2l2,2.7h-1
		c-0.1,0-0.2,0-0.3-0.1c-0.1,0-0.1-0.1-0.2-0.2l-1.6-2.1c-0.1-0.1-0.1-0.1-0.2-0.1c-0.1,0-0.2,0-0.3,0h-0.3v2.5h-1.1V4.8h1.1V7.3z"
		/>
	<path class="st0" d="M39.9,10.6h-0.8c-0.1,0-0.2,0-0.2-0.1c-0.1,0-0.1-0.1-0.1-0.2l-0.4-1.2h-2.4l-0.4,1.2c0,0.1-0.1,0.1-0.1,0.2
		c-0.1,0.1-0.1,0.1-0.2,0.1h-0.8l2.3-5.8h1.1L39.9,10.6z M36.2,8.4H38l-0.7-1.9c0-0.1-0.1-0.2-0.1-0.3c0-0.1-0.1-0.2-0.1-0.4
		C37,6,37,6.1,37,6.2c0,0.1-0.1,0.2-0.1,0.3L36.2,8.4z"/>
	<path class="st0" d="M49,4.8v0.9h-1.7v4.9h-1.1V5.7h-1.7V4.8H49z"/>
	<path class="st0" d="M55.2,10.6h-1.1V4.8h1.1V10.6z"/>
	<path class="st0" d="M64.6,4.8v0.9H62v1.6h2v0.8h-2v1.6h2.6v0.9h-3.6V4.8H64.6z"/>
	<path class="st0" d="M77.7,8.5c0,0.1,0.1,0.2,0.1,0.3c0-0.1,0.1-0.2,0.1-0.3C78,8.4,78,8.3,78,8.2L79.8,5c0,0,0-0.1,0.1-0.1
		s0,0,0.1-0.1c0,0,0.1,0,0.1,0c0,0,0.1,0,0.1,0h0.8v5.8H80V6.9c0-0.1,0-0.1,0-0.2s0-0.2,0-0.3l-1.7,3.3c0,0.1-0.1,0.1-0.2,0.2
		c-0.1,0-0.1,0.1-0.2,0.1h-0.1c-0.1,0-0.2,0-0.2-0.1c-0.1,0-0.1-0.1-0.2-0.2l-1.8-3.3c0,0.1,0,0.2,0,0.3s0,0.2,0,0.2v3.7h-0.9V4.8
		h0.8c0,0,0.1,0,0.1,0c0,0,0.1,0,0.1,0c0,0,0.1,0,0.1,0.1s0,0.1,0.1,0.1l1.7,3.2C77.6,8.3,77.6,8.4,77.7,8.5z"/>
	<path class="st0" d="M89.3,7.4C89.3,7.4,89.3,7.5,89.3,7.4c-0.1,0.1-0.2,0.1-0.2,0.1c-0.1,0-0.1,0-0.1,0c0,0-0.1-0.1-0.2-0.1
		c-0.1,0-0.1-0.1-0.2-0.1c-0.1,0-0.2,0-0.3,0c-0.2,0-0.3,0-0.5,0.1c-0.1,0.1-0.2,0.2-0.3,0.3c-0.1,0.1-0.2,0.3-0.2,0.4
		c0,0.2-0.1,0.4-0.1,0.6c0,0.2,0,0.4,0.1,0.6c0,0.2,0.1,0.3,0.2,0.4c0.1,0.1,0.2,0.2,0.3,0.3c0.1,0.1,0.3,0.1,0.4,0.1
		c0.2,0,0.3,0,0.4-0.1c0.1,0,0.2-0.1,0.2-0.1c0.1,0,0.1-0.1,0.2-0.1s0.1-0.1,0.2-0.1c0.1,0,0.1,0,0.2,0.1l0.3,0.4
		c-0.1,0.1-0.2,0.2-0.4,0.3c-0.1,0.1-0.3,0.2-0.4,0.2c-0.1,0.1-0.3,0.1-0.4,0.1c-0.1,0-0.3,0-0.4,0c-0.3,0-0.5,0-0.7-0.1
		s-0.4-0.2-0.6-0.4c-0.2-0.2-0.3-0.4-0.4-0.7s-0.1-0.6-0.1-0.9c0-0.3,0-0.6,0.1-0.8c0.1-0.3,0.2-0.5,0.4-0.7s0.4-0.3,0.6-0.4
		c0.2-0.1,0.5-0.2,0.9-0.2c0.3,0,0.6,0,0.8,0.1c0.2,0.1,0.4,0.2,0.6,0.4L89.3,7.4z"/>
	<path class="st0" d="M98.8,4.8v0.9H97v4.9H96V5.7h-1.7V4.8H98.8z"/>
	<path class="st0" d="M105.1,10.6H104V4.8h1.1V10.6z"/>
	<path class="st0" d="M113.4,9.8c0.2,0,0.5,0,0.6-0.1s0.4-0.1,0.5-0.2V8.5h-0.7c-0.1,0-0.1,0-0.2-0.1s-0.1-0.1-0.1-0.1V7.7h1.9v2.3
		c-0.1,0.1-0.3,0.2-0.5,0.3c-0.2,0.1-0.3,0.1-0.5,0.2s-0.4,0.1-0.6,0.1c-0.2,0-0.4,0-0.7,0c-0.4,0-0.8-0.1-1.2-0.2
		c-0.4-0.1-0.7-0.4-0.9-0.6c-0.3-0.3-0.5-0.6-0.6-0.9c-0.1-0.4-0.2-0.8-0.2-1.2c0-0.4,0.1-0.8,0.2-1.2s0.3-0.7,0.6-0.9
		c0.3-0.3,0.6-0.5,0.9-0.6s0.8-0.2,1.2-0.2c0.5,0,0.9,0.1,1.2,0.2c0.3,0.1,0.6,0.3,0.9,0.5L115.2,6c-0.1,0.1-0.1,0.1-0.2,0.1
		c-0.1,0-0.1,0-0.2-0.1c-0.1-0.1-0.2-0.1-0.3-0.2s-0.2-0.1-0.3-0.1c-0.1,0-0.2-0.1-0.4-0.1s-0.3,0-0.5,0c-0.3,0-0.5,0-0.8,0.1
		c-0.2,0.1-0.4,0.2-0.6,0.4s-0.3,0.4-0.4,0.6s-0.1,0.5-0.1,0.8c0,0.3,0,0.6,0.1,0.9c0.1,0.3,0.2,0.5,0.4,0.7
		c0.2,0.2,0.4,0.3,0.6,0.4S113.2,9.8,113.4,9.8z"/>
	<path class="st0" d="M123.3,9.8c0.2,0,0.4,0,0.6-0.1c0.2-0.1,0.3-0.2,0.4-0.3c0.1-0.1,0.2-0.3,0.3-0.5c0.1-0.2,0.1-0.4,0.1-0.6V4.8
		h1.1v3.5c0,0.3-0.1,0.7-0.2,1s-0.3,0.5-0.5,0.8s-0.5,0.4-0.8,0.5c-0.3,0.1-0.6,0.2-1,0.2s-0.7-0.1-1-0.2c-0.3-0.1-0.5-0.3-0.8-0.5
		c-0.2-0.2-0.4-0.5-0.5-0.8c-0.1-0.3-0.2-0.6-0.2-1V4.8h1.1v3.5c0,0.2,0,0.4,0.1,0.6s0.1,0.3,0.3,0.5c0.1,0.1,0.2,0.2,0.4,0.3
		S123.1,9.8,123.3,9.8z"/>
	<path class="st0" d="M134.8,4.8v0.9h-2.6v1.6h2v0.8h-2v1.6h2.6v0.9h-3.6V4.8H134.8z"/>
</g>
<g>
	<g>
		<defs>
			<rect id="SVGID_1_" x="0.5" y="0.6" width="14.4" height="14.4"/>
		</defs>
		<clipPath id="SVGID_2_">
			<use xlink:href="#SVGID_1_"  style="overflow:visible;"/>
		</clipPath>
		<g class="st1">
			<defs>
				<rect id="SVGID_3_" x="0.5" y="0.6" width="14.4" height="14.4"/>
			</defs>
			<clipPath id="SVGID_4_">
				<use xlink:href="#SVGID_3_"  style="overflow:visible;"/>
			</clipPath>
			<path class="st2" d="M10.1,6.9l2.6-4.3c-1.3-1.2-3-1.9-4.9-1.9c-0.4,0-0.9,0.1-1.3,0.1L10.1,6.9z"/>
			<path class="st2" d="M9.5,9.6h5.2c0.2-0.6,0.3-1.2,0.3-1.8c0-1.7-0.6-3.3-1.7-4.6L9.5,9.6z"/>
			<path class="st3" d="M8,5.1L5.5,1c-2,0.7-3.7,2.2-4.5,4.1H8z"/>
			<path class="st2" d="M7.6,10.5l2.4,4.1c2-0.7,3.6-2.2,4.4-4.1H7.6z"/>
			<path class="st3" d="M6,6H0.8C0.6,6.6,0.5,7.2,0.5,7.8c0,1.8,0.7,3.3,1.7,4.6L6,6z"/>
			<path class="st3" d="M5.5,8.7l-2.6,4.4c1.3,1.2,3,1.9,4.9,1.9c0.5,0,0.9-0.1,1.4-0.1L5.5,8.7z"/>
			<g style="clip-path:url(#SVGID_4_);">
				<text transform="matrix(1 0 0 1 -3.0475 -0.8578)" style="fill:#4281B7; font-family:'Lato-Semibold'; font-size:6.7488px;"> </text>
			</g>
		</g>
	</g>
</g>
</svg>
