<?xml version="1.0" encoding="utf-8"?>
<!-- Generator: Adobe Illustrator 22.0.1, SVG Export Plug-In . SVG Version: 6.00 Build 0)  -->
<svg version="1.1" id="Layer_1" xmlns="http://www.w3.org/2000/svg" xmlns:xlink="http://www.w3.org/1999/xlink" x="0px" y="0px"
	 viewBox="0 0 82.8 50.5" style="enable-background:new 0 0 82.8 50.5;" xml:space="preserve">
<style type="text/css">
	.st0{fill:#242D30;}
	.st1{clip-path:url(#SVGID_2_);}
	.st2{clip-path:url(#SVGID_4_);fill:#CC593A;}
	.st3{clip-path:url(#SVGID_4_);fill:#4281B7;}
	.st4{clip-path:url(#SVGID_4_);}
	.st5{fill:#4281B7;}
	.st6{font-family:'Lato-Semibold';}
	.st7{font-size:6.7488px;}
</style>
<g>
	<path class="st0" d="M23.7,32.2h0.3c0.1,0,0.2,0,0.3,0c0.1,0,0.1-0.1,0.2-0.1l1.6-2c0.1-0.1,0.1-0.1,0.2-0.2c0.1,0,0.2-0.1,0.3-0.1
		h0.9l-1.9,2.4c-0.1,0.1-0.1,0.1-0.2,0.2c-0.1,0.1-0.1,0.1-0.2,0.1c0.1,0,0.2,0.1,0.2,0.1s0.1,0.1,0.2,0.2l2,2.7h-1
		c-0.1,0-0.2,0-0.3-0.1c-0.1,0-0.1-0.1-0.2-0.2l-1.6-2.1c-0.1-0.1-0.1-0.1-0.2-0.1c-0.1,0-0.2,0-0.3,0h-0.3v2.5h-1.1v-5.8h1.1V32.2z
		"/>
	<path class="st0" d="M37.6,35.5h-0.8c-0.1,0-0.2,0-0.2-0.1c-0.1,0-0.1-0.1-0.1-0.2L36,34.1h-2.4l-0.4,1.2c0,0.1-0.1,0.1-0.1,0.2
		c-0.1,0.1-0.1,0.1-0.2,0.1H32l2.3-5.8h1.1L37.6,35.5z M33.9,33.4h1.8L35,31.4c0-0.1-0.1-0.2-0.1-0.3c0-0.1-0.1-0.2-0.1-0.4
		c0,0.1-0.1,0.3-0.1,0.4c0,0.1-0.1,0.2-0.1,0.3L33.9,33.4z"/>
	<path class="st0" d="M46.7,29.8v0.9h-1.7v4.9h-1.1v-4.9h-1.7v-0.9H46.7z"/>
	<path class="st0" d="M53,35.5h-1.1v-5.8H53V35.5z"/>
	<path class="st0" d="M62.3,29.8v0.9h-2.6v1.6h2V33h-2v1.6h2.6v0.9h-3.6v-5.8H62.3z"/>
	<path class="st0" d="M15.4,43c0,0.1,0.1,0.2,0.1,0.3c0-0.1,0.1-0.2,0.1-0.3c0-0.1,0.1-0.2,0.1-0.3l1.7-3.2c0,0,0-0.1,0.1-0.1
		s0,0,0.1-0.1c0,0,0.1,0,0.1,0c0,0,0.1,0,0.1,0h0.8v5.8h-0.9v-3.7c0-0.1,0-0.1,0-0.2s0-0.2,0-0.3l-1.7,3.3c0,0.1-0.1,0.1-0.2,0.2
		c-0.1,0-0.1,0.1-0.2,0.1h-0.1c-0.1,0-0.2,0-0.2-0.1c-0.1,0-0.1-0.1-0.2-0.2l-1.8-3.3c0,0.1,0,0.2,0,0.3s0,0.2,0,0.2v3.7h-0.9v-5.8
		h0.8c0,0,0.1,0,0.1,0c0,0,0.1,0,0.1,0c0,0,0.1,0,0.1,0.1s0,0.1,0.1,0.1l1.7,3.2C15.3,42.8,15.3,42.9,15.4,43z"/>
	<path class="st0" d="M27,41.9C27,41.9,26.9,42,27,41.9C26.9,42,26.8,42,26.8,42c-0.1,0-0.1,0-0.1,0c0,0-0.1-0.1-0.2-0.1
		c-0.1,0-0.1-0.1-0.2-0.1c-0.1,0-0.2,0-0.3,0c-0.2,0-0.3,0-0.5,0.1c-0.1,0.1-0.2,0.2-0.3,0.3c-0.1,0.1-0.2,0.3-0.2,0.4
		c0,0.2-0.1,0.4-0.1,0.6c0,0.2,0,0.4,0.1,0.6c0,0.2,0.1,0.3,0.2,0.4c0.1,0.1,0.2,0.2,0.3,0.3c0.1,0.1,0.3,0.1,0.4,0.1
		c0.2,0,0.3,0,0.4-0.1c0.1,0,0.2-0.1,0.2-0.1c0.1,0,0.1-0.1,0.2-0.1s0.1-0.1,0.2-0.1c0.1,0,0.1,0,0.2,0.1l0.3,0.4
		c-0.1,0.1-0.2,0.2-0.4,0.3c-0.1,0.1-0.3,0.2-0.4,0.2c-0.1,0.1-0.3,0.1-0.4,0.1c-0.1,0-0.3,0-0.4,0c-0.3,0-0.5,0-0.7-0.1
		s-0.4-0.2-0.6-0.4c-0.2-0.2-0.3-0.4-0.4-0.7s-0.1-0.6-0.1-0.9c0-0.3,0-0.6,0.1-0.8c0.1-0.3,0.2-0.5,0.4-0.7s0.4-0.3,0.6-0.4
		c0.2-0.1,0.5-0.2,0.9-0.2c0.3,0,0.6,0,0.8,0.1c0.2,0.1,0.4,0.2,0.6,0.4L27,41.9z"/>
	<path class="st0" d="M36.5,39.4v0.9h-1.7v4.9h-1.1v-4.9h-1.7v-0.9H36.5z"/>
	<path class="st0" d="M42.8,45.1h-1.1v-5.8h1.1V45.1z"/>
	<path class="st0" d="M51.1,44.4c0.2,0,0.5,0,0.6-0.1s0.4-0.1,0.5-0.2v-1.1h-0.7c-0.1,0-0.1,0-0.2-0.1s-0.1-0.1-0.1-0.1v-0.6h1.9
		v2.3c-0.1,0.1-0.3,0.2-0.5,0.3c-0.2,0.1-0.3,0.1-0.5,0.2s-0.4,0.1-0.6,0.1c-0.2,0-0.4,0-0.7,0c-0.4,0-0.8-0.1-1.2-0.2
		c-0.4-0.1-0.7-0.4-0.9-0.6c-0.3-0.3-0.5-0.6-0.6-0.9c-0.1-0.4-0.2-0.8-0.2-1.2c0-0.4,0.1-0.8,0.2-1.2s0.3-0.7,0.6-0.9
		c0.3-0.3,0.6-0.5,0.9-0.6s0.8-0.2,1.2-0.2c0.5,0,0.9,0.1,1.2,0.2c0.3,0.1,0.6,0.3,0.9,0.5l-0.3,0.5c-0.1,0.1-0.1,0.1-0.2,0.1
		c-0.1,0-0.1,0-0.2-0.1c-0.1-0.1-0.2-0.1-0.3-0.2s-0.2-0.1-0.3-0.1c-0.1,0-0.2-0.1-0.4-0.1s-0.3,0-0.5,0c-0.3,0-0.5,0-0.8,0.1
		c-0.2,0.1-0.4,0.2-0.6,0.4s-0.3,0.4-0.4,0.6s-0.1,0.5-0.1,0.8c0,0.3,0,0.6,0.1,0.9c0.1,0.3,0.2,0.5,0.4,0.7
		c0.2,0.2,0.4,0.3,0.6,0.4S50.8,44.4,51.1,44.4z"/>
	<path class="st0" d="M61,44.3c0.2,0,0.4,0,0.6-0.1c0.2-0.1,0.3-0.2,0.4-0.3c0.1-0.1,0.2-0.3,0.3-0.5c0.1-0.2,0.1-0.4,0.1-0.6v-3.5
		h1.1v3.5c0,0.3-0.1,0.7-0.2,1s-0.3,0.5-0.5,0.8S62.3,44.9,62,45c-0.3,0.1-0.6,0.2-1,0.2s-0.7-0.1-1-0.2c-0.3-0.1-0.5-0.3-0.8-0.5
		c-0.2-0.2-0.4-0.5-0.5-0.8c-0.1-0.3-0.2-0.6-0.2-1v-3.5h1.1v3.5c0,0.2,0,0.4,0.1,0.6s0.1,0.3,0.3,0.5c0.1,0.1,0.2,0.2,0.4,0.3
		S60.8,44.3,61,44.3z"/>
	<path class="st0" d="M72.5,39.4v0.9h-2.6v1.6h2v0.8h-2v1.6h2.6v0.9h-3.6v-5.8H72.5z"/>
</g>
<g>
	<g>
		<defs>
			<rect id="SVGID_1_" x="35.1" y="4.9" width="14.4" height="14.4"/>
		</defs>
		<clipPath id="SVGID_2_">
			<use xlink:href="#SVGID_1_"  style="overflow:visible;"/>
		</clipPath>
		<g class="st1">
			<defs>
				<rect id="SVGID_3_" x="35.1" y="4.9" width="14.4" height="14.4"/>
			</defs>
			<clipPath id="SVGID_4_">
				<use xlink:href="#SVGID_3_"  style="overflow:visible;"/>
			</clipPath>
			<path class="st2" d="M44.6,11.2l2.6-4.3c-1.3-1.2-3-1.9-4.9-1.9c-0.4,0-0.9,0.1-1.3,0.1L44.6,11.2z"/>
			<path class="st2" d="M44,13.9h5.2c0.2-0.6,0.3-1.2,0.3-1.8c0-1.7-0.6-3.3-1.7-4.6L44,13.9z"/>
			<path class="st3" d="M42.5,9.4L40,5.3c-2,0.7-3.7,2.2-4.5,4.1H42.5z"/>
			<path class="st2" d="M42.1,14.8l2.4,4.1c2-0.7,3.6-2.2,4.4-4.1H42.1z"/>
			<path class="st3" d="M40.5,10.3h-5.2c-0.1,0.6-0.3,1.2-0.3,1.8c0,1.8,0.7,3.3,1.7,4.6L40.5,10.3z"/>
			<path class="st3" d="M40,13l-2.6,4.4c1.3,1.2,3,1.9,4.9,1.9c0.5,0,0.9-0.1,1.4-0.1L40,13z"/>
			<g class="st4">
				<text transform="matrix(1 0 0 1 31.4676 3.4646)" class="st5 st6 st7"> </text>
			</g>
		</g>
	</g>
</g>
</svg>
